With: Justin Whalin, Perrey Reeves en de stem van Brad Dourif

Het is alweer acht jaar geleden dat Andy Barclay (Justin Whalin) gepest werd door de moorddadige pop Chucky. Om niet voor altijd in het poppen lichaam opgesloten te zitten, moet Chucky zijn ziel ruilen met iemand anders. En dat doet hij met Andy. Andy is nu 16 jaar en doet zijn best om te leren leven met de afschuwelijke ervaring uit zijn verleden. Omdat iedereen hem lastig vindt, wordt hij naar de Kent Military School gestuurd, waar hij hoopt tot rust te kunnen komen. Alleen, het verleden wil helemaal niet rusten.

It's been eight years since the events in the second film, we now see that Andy is a teenager who has been enrolled in a military school...

------------------ Dutch Friends ------------------
You can find my Friends at: http://www.Film-Test.nl 
------ They got my dutch subs ----- and more ------

General:

Complete name                    : Child's Play 3\Child's Play 3.avi
Format                           : AVI
Format/Info                      : Audio Video Interleave
File size                        : 1.36 GiB
Duration                         : 1h 25mn
Overall bit rate                 : 2 262 Kbps

Video:

Format                           : MPEG-4 Visual
Format profile                   : Simple@L3
Format settings, BVOP            : No
Format settings, QPel            : No
Format settings, GMC             : No warppoints
Format settings, Matrix          : Default (H.263)
Codec ID                         : XVID
Codec ID/Hint                    : XviD
Duration                         : 1h 25mn
Bit rate                         : 2 059 Kbps
Width                            : 652 pixels
Height                           : 352 pixels
Display aspect ratio             : 1.852
Frame rate                       : 25.000 fps
Color space                      : YUV
Chroma subsampling               : 4:2:0
Bit depth                        : 8 bits
Scan type                        : Progressive
Bits/(Pixel*Frame)               : 0.359
Stream size                      : 1.24 GiB (91%)
Writing library                  : XviD 1.1.2 (UTC 2006-11-01)

Audio:

Format                           : AC-3
Format/Info                      : Audio Coding 3
Mode extension                   : CM (complete main)
Codec ID                         : 2000
Duration                         : 1h 25mn
Bit rate mode                    : Constant
Bit rate                         : 192 Kbps
Channel(s)                       : 2 channels
Channel positions                : Front: L R
Sampling rate                    : 48.0 KHz
Bit depth                        : 16 bits
Stream size                      : 118 MiB (8%)
Alignment                        : Aligned on interleaves
Interleave, duration             : 32 ms (0.80 video frame)
Interleave, preload duration     : 64 ms


